<svg id="visual" viewBox="0 0 900 600" width="900" height="600" xmlns="http://www.w3.org/2000/svg" xmlns:xlink="http://www.w3.org/1999/xlink" version="1.1"><path d="M0 61L82 49L164 43L245 37L327 97L409 73L491 79L573 67L655 73L736 85L818 67L900 91L900 0L818 0L736 0L655 0L573 0L491 0L409 0L327 0L245 0L164 0L82 0L0 0Z" fill="#00cc8e"></path><path d="M0 127L82 115L164 151L245 115L327 199L409 193L491 241L573 151L655 211L736 175L818 127L900 181L900 89L818 65L736 83L655 71L573 65L491 77L409 71L327 95L245 35L164 41L82 47L0 59Z" fill="#00b98a"></path><path d="M0 361L82 373L164 373L245 409L327 361L409 355L491 367L573 391L655 319L736 385L818 409L900 367L900 179L818 125L736 173L655 209L573 149L491 239L409 191L327 197L245 113L164 149L82 113L0 125Z" fill="#00a784"></path><path d="M0 487L82 547L164 493L245 547L327 493L409 523L491 553L573 547L655 493L736 529L818 541L900 529L900 365L818 407L736 383L655 317L573 389L491 365L409 353L327 359L245 407L164 371L82 371L0 359Z" fill="#00957c"></path><path d="M0 601L82 601L164 601L245 601L327 601L409 601L491 601L573 601L655 601L736 601L818 601L900 601L900 527L818 539L736 527L655 491L573 545L491 551L409 521L327 491L245 545L164 491L82 545L0 485Z" fill="#038373"></path></svg>